{"title":"Mijn Vader Is een Detective; De Wet van 3 (2011) DVDRip DRT","uid":6797285,"size":740613787,"categoryP":"video","categoryS":"movies","magnet":"?xt=urn:btih:aa9cdc7485166777a6ef0b8055050bb15a49e3c3&amp;dn=Mijn+Vader+Is+een+Detective%3B+De+Wet+van+3+%282011%29+DVDRip+DRT&amp;tr=udp%3A%2F%2Ftracker.openbittorrent.com%3A80&amp;tr=udp%3A%2F%2Fopen.demonii.com%3A1337&amp;tr=udp%3A%2F%2Ftracker.coppersurfer.tk%3A6969&amp;tr=udp%3A%2F%2Fexodus.desync.com%3A6969","seeders":2,"leechers":0,"uploader":"Koedje","files":-1,"time":1320505526,"description":" &lt;a href=&quot;http://img830.imageshack.us/img830/233/dewetvan3.jpg&quot; rel=&quot;nofollow&quot; target=&quot;_NEW&quot;&gt;http://img830.imageshack.us/img830/233/dewetvan3.jpg&lt;/a&gt;\n\n\nNederland\nAvontuur\n80 minuten\n\ngeregisseerd door Will Wissink\nmet Tjeerd Melchers, Cees Geel en Jasmin Pasteuning\n\nIn 'Mijn Vader Is een Detective: De Wet van 3' maken we kennis met de mysterieuze 14-jarige Mara bij wie het, sinds de vermissing van haar moeder, spookt. Wanneer zij aan detective Max vraagt om haar moeder op te sporen maken Max's zoon Sam en diens vriend Ortwin zich grote zorgen. Max heeft niet door dat Mara een heks is en intussen raakt Sterre, het meisje op wie de jongens allebei verliefd zijn, steeds meer onder haar invloed. Ze doen er alles aan om Mara te ontmaskeren. Ze belanden in een spannend oord waar vreemde rituelen worden uitgeoefend, dingen verdwijnen, en niemand veilig is.\n\n\n\n\nScreenshots:\n &lt;a href=&quot;\nhttp://img513.imageshack.us/img513/5196/screenshot1ba.jpg&quot; rel=&quot;nofollow&quot; target=&quot;_NEW&quot;&gt;\nhttp://img513.imageshack.us/img513/5196/screenshot1ba.jpg&lt;/a&gt;\n &lt;a href=&quot;\nhttp://img856.imageshack.us/img856/7707/screenshot2zs.jpg&quot; rel=&quot;nofollow&quot; target=&quot;_NEW&quot;&gt;\nhttp://img856.imageshack.us/img856/7707/screenshot2zs.jpg&lt;/a&gt;\n &lt;a href=&quot;\nhttp://img338.imageshack.us/img338/1776/screenshot3mn.jpg&quot; rel=&quot;nofollow&quot; target=&quot;_NEW&quot;&gt;\nhttp://img338.imageshack.us/img338/1776/screenshot3mn.jpg&lt;/a&gt;\n &lt;a href=&quot;\nhttp://img3.imageshack.us/img3/3527/screenshot4ly.jpg&quot; rel=&quot;nofollow&quot; target=&quot;_NEW&quot;&gt;\nhttp://img3.imageshack.us/img3/3527/screenshot4ly.jpg&lt;/a&gt;\n\n\n\n\nINFO;\n\n\nFormat                                   : AVI\nFormat/Info                              : Audio Video Interleave\nFile size                                : 700 MiB\nDuration                                 : 1h 20mn\nOverall bit rate mode                    : Variable\nOverall bit rate                         : 1 219 Kbps\nWriting application                      : VirtualDubMod 1.5.4.1 (build 2178/release)\nWriting library                          : VirtualDubMod build 2178/release\n\nVideo\nID                                       : 0\nFormat                                   : MPEG-4 Visual\nFormat profile                           : Advanced Simple@L5\nFormat settings, BVOP                    : 1\nFormat settings, QPel                    : No\nFormat settings, GMC                     : No warppoints\nFormat settings, Matrix                  : Custom\nCodec ID                                 : XVID\nCodec ID/Hint                            : XviD\nDuration                                 : 1h 20mn\nBit rate                                 : 1 092 Kbps\nWidth                                    : 688 pixels\nHeight                                   : 288 pixels\nDisplay aspect ratio                     : 2.40:1\nFrame rate                               : 25.000 fps\nColor space                              : YUV\nChroma subsampling                       : 4:2:0\nBit depth                                : 8 bits\nScan type                                : Progressive\nCompression mode                         : Lossy\nBits/(Pixel*Frame)                       : 0.221\nStream size                              : 627 MiB (90%)\nWriting library                          : XviD 64\n\nAudio\nID                                       : 1\nFormat                                   : MPEG Audio\nFormat version                           : Version 1\nFormat profile                           : Layer 3\nMode                                     : Joint stereo\nMode extension                           : MS Stereo\nCodec ID                                 : 55\nCodec ID/Hint                            : MP3\nDuration                                 : 1h 20mn\nBit rate mode                            : Variable\nBit rate                                 : 112 Kbps\nChannel(s)                               : 2 channels\nSampling rate                            : 48.0 KHz\nCompression mode                         : Lossy\nDelay relative to video                  : 1ms\nStream size                              : 65.3 MiB (9%)\n\n\n\n &lt;a href=&quot;\nhttp://www.imdb.com/title/tt1972712/&quot; rel=&quot;nofollow&quot; target=&quot;_NEW&quot;&gt;\nhttp://www.imdb.com/title/tt1972712/&lt;/a&gt; &lt;a href=&quot;\nhttp://www.moviemeter.nl/film/76130&quot; rel=&quot;nofollow&quot; target=&quot;_NEW&quot;&gt;\nhttp://www.moviemeter.nl/film/76130&lt;/a&gt;\n\n\n\nDeze film wordt u aangeboden door het DutchReleaseTeam.\nVoor de reviews van de nieuwste films, muziek, series, games etc\nga dan eens naar http://www.hetmultimediacafe.be\n\nDutchReleaseteam = Hardcoded Dutch Subs","torrent":{"xt":"urn:btih:aa9cdc7485166777a6ef0b8055050bb15a49e3c3","amp;dn":"Mijn+Vader+Is+een+Detective%3B+De+Wet+van+3+%282011%29+DVDRip+DRT","amp;tr":["udp%3A%2F%2Ftracker.openbittorrent.com%3A80","udp%3A%2F%2Fopen.demonii.com%3A1337","udp%3A%2F%2Ftracker.coppersurfer.tk%3A6969","udp%3A%2F%2Fexodus.desync.com%3A6969"],"infoHash":"aa9cdc7485166777a6ef0b8055050bb15a49e3c3","infoHashBuffer":{"type":"Buffer","data":[170,156,220,116,133,22,103,119,166,239,11,128,85,5,11,177,90,73,227,195]},"announce":[],"urlList":[]}}